<svg width="17" height="16" viewBox="0 0 17 16" fill="none" xmlns="http://www.w3.org/2000/svg">
<path id="Path" d="M16.5386 6.0972C16.5036 5.98994 16.4109 5.91172 16.2992 5.89542L10.9392 5.11646L8.54216 0.259572C8.49238 0.158238 8.38927 0.0942383 8.27668 0.0942383C8.16408 0.0942383 8.06068 0.158238 8.01119 0.259572L5.61386 5.11676L0.253861 5.89572C0.142157 5.91202 0.049713 5.98994 0.0144538 6.0975C-0.0202129 6.20446 0.00852784 6.32239 0.0894167 6.40091L3.96823 10.1816L3.05238 15.5203C3.03342 15.6314 3.07905 15.7437 3.17001 15.8101C3.26156 15.8771 3.38275 15.8856 3.48201 15.8326L8.27668 13.3123L13.0708 15.8326C13.114 15.8554 13.1617 15.8667 13.2088 15.8667C13.2702 15.8667 13.3312 15.8477 13.383 15.8101C13.4743 15.7437 13.5199 15.6314 13.5007 15.5203L12.5851 10.1819L16.4639 6.40091C16.5445 6.32179 16.5736 6.20416 16.5386 6.0972Z" fill="#EF9546"/>
</svg>
